<?xml version="1.0" encoding="UTF-8"?>
<!DOCTYPE svg PUBLIC "-//W3C//DTD SVG 1.1//EN" "http://www.w3.org/Graphics/SVG/1.1/DTD/svg11.dtd">
<svg xmlns="http://www.w3.org/2000/svg" version="1.1" width="402px" height="597px" style="shape-rendering:geometricPrecision; text-rendering:geometricPrecision; image-rendering:optimizeQuality; fill-rule:evenodd; clip-rule:evenodd" xmlns:xlink="http://www.w3.org/1999/xlink">
<g><path style="opacity:0.006" fill="#f4f6f9" d="M 278.5,32.5 C 287.324,31.3427 296.324,31.176 305.5,32C 308.599,32.3874 311.266,33.5541 313.5,35.5C 312.167,35.5 310.833,35.5 309.5,35.5C 308.081,34.5489 306.415,34.2155 304.5,34.5C 297.576,32.5367 290.243,31.8701 282.5,32.5C 281.167,32.5 279.833,32.5 278.5,32.5 Z"/></g>
<g><path style="opacity:0.114" fill="#68b8ab" d="M 278.5,32.5 C 279.833,32.5 281.167,32.5 282.5,32.5C 221.002,33.4991 159.336,33.8324 97.5,33.5C 97.5,33.1667 97.5,32.8333 97.5,32.5C 157.664,32.1498 217.997,32.1498 278.5,32.5 Z"/></g>
<g><path style="opacity:0.082" fill="#c7dce0" d="M 97.5,32.5 C 97.5,32.8333 97.5,33.1667 97.5,33.5C 97.5,33.8333 97.5,34.1667 97.5,34.5C 95.5853,34.2155 93.9187,34.5489 92.5,35.5C 90.7839,35.6287 89.1172,35.962 87.5,36.5C 90.2164,33.8209 93.5497,32.4876 97.5,32.5 Z"/></g>
<g><path style="opacity:0.737" fill="#2ea98b" d="M 282.5,32.5 C 290.243,31.8701 297.576,32.5367 304.5,34.5C 235.5,34.5 166.5,34.5 97.5,34.5C 97.5,34.1667 97.5,33.8333 97.5,33.5C 159.336,33.8324 221.002,33.4991 282.5,32.5 Z"/></g>
<g><path style="opacity:1" fill="#2dc279" d="M 97.5,34.5 C 166.5,34.5 235.5,34.5 304.5,34.5C 306.415,34.2155 308.081,34.5489 309.5,35.5C 314.513,38.85 318.847,42.85 322.5,47.5C 323.477,58.7524 323.811,70.0857 323.5,81.5C 321.021,86.1434 317.355,89.6434 312.5,92C 307.081,92.1786 301.747,92.3453 296.5,92.5C 295.883,92.6107 295.383,92.944 295,93.5C 294.333,110.167 294.333,126.833 295,143.5C 295.21,145.058 295.71,146.391 296.5,147.5C 297.323,150.48 298.657,153.147 300.5,155.5C 304.213,158.884 307.879,162.217 311.5,165.5C 318.067,173.624 324.4,181.957 330.5,190.5C 332.081,192.142 332.747,194.142 332.5,196.5C 334.664,196.721 336.33,197.721 337.5,199.5C 337.833,200.167 338.167,200.833 338.5,201.5C 342.971,207.784 345.804,214.784 347,222.5C 347.671,223.252 348.504,223.586 349.5,223.5C 349.5,223.833 349.5,224.167 349.5,224.5C 348.957,224.56 348.624,224.893 348.5,225.5C 350.253,231.694 350.919,238.027 350.5,244.5C 350.168,303.669 350.501,362.669 351.5,421.5C 352.496,435.323 352.829,449.323 352.5,463.5C 351.958,486.379 351.125,509.379 350,532.5C 341.902,555.612 326.069,569.779 302.5,575C 294.484,575.477 286.484,576.144 278.5,577C 224.168,577.5 169.834,577.667 115.5,577.5C 99.3129,574.934 84.3129,569.1 70.5,560C 60.2108,552.578 53.5441,542.745 50.5,530.5C 50.1757,518.66 49.5091,506.993 48.5,495.5C 48.5,494.833 48.1667,494.5 47.5,494.5C 47.5,405.167 47.5,315.833 47.5,226.5C 49.0968,225.263 50.2635,223.596 51,221.5C 52.6888,216.1 54.6888,210.767 57,205.5C 60.0951,202.308 62.4284,198.641 64,194.5C 76.7621,182.241 88.9287,169.575 100.5,156.5C 103.051,154.422 104.884,151.756 106,148.5C 107.061,143.896 107.727,139.229 108,134.5C 108.667,121.167 108.667,107.833 108,94.5C 107.292,93.6195 106.458,92.9528 105.5,92.5C 100.253,92.3453 94.9194,92.1786 89.5,92C 88.5842,91.7216 87.9175,91.2216 87.5,90.5C 84.0184,87.5156 81.5184,83.849 80,79.5C 79.3333,69.1667 79.3333,58.8333 80,48.5C 83.0248,42.9769 87.1915,38.6436 92.5,35.5C 93.9187,34.5489 95.5853,34.2155 97.5,34.5 Z M 314.5,253.5 C 313.54,295.152 313.206,336.818 313.5,378.5C 313.667,425.835 313.5,473.168 313,520.5C 311.277,529.224 306.11,534.724 297.5,537C 288.256,537.181 279.089,537.681 270,538.5C 234.92,538.558 199.086,538.224 162.5,537.5C 141.916,537.129 121.249,537.129 100.5,537.5C 95.4985,534.664 91.6651,530.664 89,525.5C 88.5,435.167 88.3333,344.834 88.5,254.5C 164.052,254.487 239.385,254.154 314.5,253.5 Z"/></g>
<g><path style="opacity:0.314" fill="#59bb9b" d="M 309.5,35.5 C 310.833,35.5 312.167,35.5 313.5,35.5C 317.308,38.2073 320.308,41.5406 322.5,45.5C 322.5,46.1667 322.5,46.8333 322.5,47.5C 318.847,42.85 314.513,38.85 309.5,35.5 Z"/></g>
<g><path style="opacity:0.408" fill="#b1cde1" d="M 322.5,45.5 C 323.5,45.8333 324.167,46.5 324.5,47.5C 324.828,59.0123 324.495,70.3456 323.5,81.5C 323.811,70.0857 323.477,58.7524 322.5,47.5C 322.5,46.8333 322.5,46.1667 322.5,45.5 Z"/></g>
<g><path style="opacity:0.6" fill="#34a68f" d="M 92.5,35.5 C 87.1915,38.6436 83.0248,42.9769 80,48.5C 79.3333,58.8333 79.3333,69.1667 80,79.5C 81.5184,83.849 84.0184,87.5156 87.5,90.5C 83.4922,88.1543 80.1588,85.1543 77.5,81.5C 77.3335,70.1618 77.5001,58.8284 78,47.5C 80.2843,43.0506 83.4509,39.384 87.5,36.5C 89.1172,35.962 90.7839,35.6287 92.5,35.5 Z"/></g>
<g><path style="opacity:0.03" fill="#eef3f6" d="M 324.5,47.5 C 325.659,58.9927 325.826,70.6593 325,82.5C 318.997,93.6253 309.664,97.9587 297,95.5C 296.5,108.162 296.333,120.829 296.5,133.5C 295.194,119.961 295.194,106.294 296.5,92.5C 301.747,92.3453 307.081,92.1786 312.5,92C 317.355,89.6434 321.021,86.1434 323.5,81.5C 324.495,70.3456 324.828,59.0123 324.5,47.5 Z"/></g>
<g><path style="opacity:0.026" fill="#d9e4ec" d="M 77.5,81.5 C 80.1588,85.1543 83.4922,88.1543 87.5,90.5C 87.9175,91.2216 88.5842,91.7216 89.5,92C 94.9194,92.1786 100.253,92.3453 105.5,92.5C 105.557,93.609 105.89,94.609 106.5,95.5C 100.548,94.7524 94.5484,94.2524 88.5,94C 83.1,91.3717 79.4333,87.2051 77.5,81.5 Z"/></g>
<g><path style="opacity:0.448" fill="#4eb693" d="M 296.5,92.5 C 295.194,106.294 295.194,119.961 296.5,133.5C 296.5,136.5 296.5,139.5 296.5,142.5C 296.5,144.167 296.5,145.833 296.5,147.5C 295.71,146.391 295.21,145.058 295,143.5C 294.333,126.833 294.333,110.167 295,93.5C 295.383,92.944 295.883,92.6107 296.5,92.5 Z"/></g>
<g><path style="opacity:0.614" fill="#309e86" d="M 105.5,92.5 C 106.458,92.9528 107.292,93.6195 108,94.5C 108.667,107.833 108.667,121.167 108,134.5C 107.727,139.229 107.061,143.896 106,148.5C 104.884,151.756 103.051,154.422 100.5,156.5C 100.5,155.5 100.5,154.5 100.5,153.5C 103.596,150.544 105.096,146.877 105,142.5C 106.319,126.864 106.819,111.197 106.5,95.5C 105.89,94.609 105.557,93.609 105.5,92.5 Z"/></g>
<g><path style="opacity:0.039" fill="#eaecec" d="M 296.5,142.5 C 298.213,143.635 298.88,145.302 298.5,147.5C 297.833,147.5 297.167,147.5 296.5,147.5C 296.5,145.833 296.5,144.167 296.5,142.5 Z"/></g>
<g><path style="opacity:0.149" fill="#52ae90" d="M 296.5,147.5 C 297.167,147.5 297.833,147.5 298.5,147.5C 299.458,149.302 300.125,151.302 300.5,153.5C 300.5,154.167 300.5,154.833 300.5,155.5C 298.657,153.147 297.323,150.48 296.5,147.5 Z"/></g>
<g><path style="opacity:0.031" fill="#c3cfd6" d="M 300.5,153.5 C 302.649,155.046 304.816,156.712 307,158.5C 308.75,160.734 310.25,163.068 311.5,165.5C 307.879,162.217 304.213,158.884 300.5,155.5C 300.5,154.833 300.5,154.167 300.5,153.5 Z"/></g>
<g><path style="opacity:0.031" fill="#c7d3dc" d="M 311.5,165.5 C 319.622,172.95 326.622,181.283 332.5,190.5C 331.833,190.5 331.167,190.5 330.5,190.5C 324.4,181.957 318.067,173.624 311.5,165.5 Z"/></g>
<g><path style="opacity:0.439" fill="#4cb29a" d="M 100.5,153.5 C 100.5,154.5 100.5,155.5 100.5,156.5C 88.9287,169.575 76.7621,182.241 64,194.5C 62.4284,198.641 60.0951,202.308 57,205.5C 54.6888,210.767 52.6888,216.1 51,221.5C 50.2635,223.596 49.0968,225.263 47.5,226.5C 47.1667,226.5 46.8333,226.5 46.5,226.5C 48.1564,219.52 50.6564,212.853 54,206.5C 57.9035,201.037 61.5701,195.37 65,189.5C 77.0626,177.605 88.8959,165.605 100.5,153.5 Z"/></g>
<g><path style="opacity:0.035" fill="#e0ebec" d="M 333.5,191.5 C 334.906,191.973 335.573,192.973 335.5,194.5C 333.952,194.179 333.285,193.179 333.5,191.5 Z"/></g>
<g><path style="opacity:0.22" fill="#4eb48d" d="M 330.5,190.5 C 331.167,190.5 331.833,190.5 332.5,190.5C 333.167,190.5 333.5,190.833 333.5,191.5C 333.285,193.179 333.952,194.179 335.5,194.5C 337.104,195.287 337.771,196.62 337.5,198.5C 337.5,198.833 337.5,199.167 337.5,199.5C 336.33,197.721 334.664,196.721 332.5,196.5C 332.747,194.142 332.081,192.142 330.5,190.5 Z"/></g>
<g><path style="opacity:0.051" fill="#d6dae9" d="M 337.5,198.5 C 339.5,198.5 340.5,199.5 340.5,201.5C 339.833,201.5 339.167,201.5 338.5,201.5C 338.167,200.833 337.833,200.167 337.5,199.5C 337.5,199.167 337.5,198.833 337.5,198.5 Z"/></g>
<g><path style="opacity:0.314" fill="#61c2a2" d="M 338.5,201.5 C 339.167,201.5 339.833,201.5 340.5,201.5C 345.032,208.068 348.032,215.401 349.5,223.5C 348.504,223.586 347.671,223.252 347,222.5C 345.804,214.784 342.971,207.784 338.5,201.5 Z"/></g>
<g><path style="opacity:0.167" fill="#c9d7e6" d="M 349.5,224.5 C 350.927,226.148 351.76,228.148 352,230.5C 352.499,235.155 352.666,239.821 352.5,244.5C 351.833,244.5 351.167,244.5 350.5,244.5C 350.919,238.027 350.253,231.694 348.5,225.5C 348.624,224.893 348.957,224.56 349.5,224.5 Z"/></g>
<g><path style="opacity:0.486" fill="#d1e1ee" d="M 249.5,251.5 C 271.34,251.169 293.006,251.503 314.5,252.5C 238.833,252.5 163.167,252.5 87.5,252.5C 87.5,343.5 87.5,434.5 87.5,525.5C 86.5006,434.335 86.1673,343.002 86.5,251.5C 140.833,251.5 195.167,251.5 249.5,251.5 Z"/></g>
<g><path style="opacity:0.039" fill="#fdfdfe" d="M 314.5,252.5 C 314.5,252.833 314.5,253.167 314.5,253.5C 239.385,254.154 164.052,254.487 88.5,254.5C 88.3333,344.834 88.5,435.167 89,525.5C 91.6651,530.664 95.4985,534.664 100.5,537.5C 100.5,537.833 100.5,538.167 100.5,538.5C 99.2921,537.766 97.9587,537.433 96.5,537.5C 91.9709,534.639 88.9709,530.639 87.5,525.5C 87.5,434.5 87.5,343.5 87.5,252.5C 163.167,252.5 238.833,252.5 314.5,252.5 Z"/></g>
<g><path style="opacity:0.994" fill="#2dbe7d" d="M 316.5,261.5 C 316.667,348.501 316.5,435.501 316,522.5C 315.79,524.058 315.29,525.391 314.5,526.5C 314.5,524.833 314.5,523.167 314.5,521.5C 315.167,434.833 315.833,348.167 316.5,261.5 Z"/></g>
<g><path style="opacity:0.991" fill="#37ba83" d="M 350.5,244.5 C 351.167,244.5 351.833,244.5 352.5,244.5C 351.817,303.498 351.483,362.498 351.5,421.5C 350.501,362.669 350.168,303.669 350.5,244.5 Z"/></g>
<g><path style="opacity:0.792" fill="#36ad8d" d="M 249.5,251.5 C 271.329,250.337 293.329,250.17 315.5,251C 316.456,254.394 316.789,257.894 316.5,261.5C 315.833,348.167 315.167,434.833 314.5,521.5C 314.832,473.664 314.499,425.997 313.5,378.5C 313.206,336.818 313.54,295.152 314.5,253.5C 314.5,253.167 314.5,252.833 314.5,252.5C 293.006,251.503 271.34,251.169 249.5,251.5 Z"/></g>
<g><path style="opacity:0.137" fill="#49b19a" d="M 313.5,378.5 C 314.499,425.997 314.832,473.664 314.5,521.5C 314.5,523.167 314.5,524.833 314.5,526.5C 311.204,532.622 306.204,536.789 299.5,539C 258.775,540.709 218.109,540.876 177.5,539.5C 172.695,538.513 167.695,538.179 162.5,538.5C 162.5,538.167 162.5,537.833 162.5,537.5C 199.086,538.224 234.92,538.558 270,538.5C 279.089,537.681 288.256,537.181 297.5,537C 306.11,534.724 311.277,529.224 313,520.5C 313.5,473.168 313.667,425.835 313.5,378.5 Z"/></g>
<g><path style="opacity:0.086" fill="#c0cad5" d="M 46.5,226.5 C 46.8333,226.5 47.1667,226.5 47.5,226.5C 47.5,315.833 47.5,405.167 47.5,494.5C 47.1667,494.5 46.8333,494.5 46.5,494.5C 45.285,405.008 45.285,315.675 46.5,226.5 Z"/></g>
<g><path style="opacity:0.416" fill="#cdd9e3" d="M 352.5,244.5 C 353.499,303.331 353.832,362.331 353.5,421.5C 353.829,435.677 353.496,449.677 352.5,463.5C 352.829,449.323 352.496,435.323 351.5,421.5C 351.483,362.498 351.817,303.498 352.5,244.5 Z"/></g>
<g><path style="opacity:0.004" fill="#f2f8fa" d="M 46.5,494.5 C 46.8333,494.5 47.1667,494.5 47.5,494.5C 48.1667,494.5 48.5,494.833 48.5,495.5C 47.559,500.07 47.2256,504.737 47.5,509.5C 46.5128,504.695 46.1795,499.695 46.5,494.5 Z"/></g>
<g><path style="opacity:0.835" fill="#3cac8b" d="M 48.5,495.5 C 49.5091,506.993 50.1757,518.66 50.5,530.5C 49.8333,530.5 49.1667,530.5 48.5,530.5C 47.9948,524.207 47.3281,517.707 46.5,511C 47.056,510.617 47.3893,510.117 47.5,509.5C 47.2256,504.737 47.559,500.07 48.5,495.5 Z"/></g>
<g><path style="opacity:0.18" fill="#56b69c" d="M 162.5,537.5 C 162.5,537.833 162.5,538.167 162.5,538.5C 141.833,538.5 121.167,538.5 100.5,538.5C 100.5,538.167 100.5,537.833 100.5,537.5C 121.249,537.129 141.916,537.129 162.5,537.5 Z"/></g>
<g><path style="opacity:0.852" fill="#2cab82" d="M 96.5,537.5 C 97.9587,537.433 99.2921,537.766 100.5,538.5C 121.167,538.5 141.833,538.5 162.5,538.5C 167.695,538.179 172.695,538.513 177.5,539.5C 150.146,540.158 123.146,539.491 96.5,537.5 Z"/></g>
<g><path style="opacity:0.02" fill="#e3e9ee" d="M 48.5,530.5 C 49.1667,530.5 49.8333,530.5 50.5,530.5C 53.5441,542.745 60.2108,552.578 70.5,560C 84.3129,569.1 99.3129,574.934 115.5,577.5C 113.167,577.5 110.833,577.5 108.5,577.5C 87.5607,574.821 70.3941,565.488 57,549.5C 52.7187,543.826 49.8854,537.493 48.5,530.5 Z"/></g>
<g><path style="opacity:0.099" fill="#f6f8fa" d="M 353.5,421.5 C 354.166,428.659 354.5,435.992 354.5,443.5C 353.892,472.498 353.392,501.498 353,530.5C 346.016,554.818 330.516,570.318 306.5,577C 297.304,577.132 288.304,578.132 279.5,580C 224.833,580.667 170.167,580.667 115.5,580C 113.5,579.667 111.5,579.333 109.5,579C 108.944,578.617 108.611,578.117 108.5,577.5C 110.833,577.5 113.167,577.5 115.5,577.5C 169.834,577.667 224.168,577.5 278.5,577C 286.484,576.144 294.484,575.477 302.5,575C 326.069,569.779 341.902,555.612 350,532.5C 351.125,509.379 351.958,486.379 352.5,463.5C 353.496,449.677 353.829,435.677 353.5,421.5 Z"/></g>
</svg>
